<svg xmlns="http://www.w3.org/2000/svg" xmlns:xlink="http://www.w3.org/1999/xlink" width="293.977" height="257.958" viewBox="0 0 77.781366 68.251365"><defs><linearGradient gradientTransform="matrix(-.013 -.01966 .01932 -.01493 151.654 290.082)" gradientUnits="userSpaceOnUse" y2="2300.215" x2="6069.057" y1="2538.05" x1="5466.681" id="b" xlink:href="#a"/><linearGradient id="a"><stop offset="0" stop-color="#c3875c"/><stop offset=".48" stop-color="#eccba3"/><stop offset="1" stop-color="#fce0cb"/></linearGradient></defs><g transform="translate(138.022 -134.888)"><path d="M-117.19 184.278a20.69 9.094 0 0 0-13.734 2.307l-5.434.006-1.284 5.482a20.69 9.094 0 0 0-.238 1.3 20.69 9.094 0 0 0 20.69 9.093 20.69 9.094 0 0 0 20.69-9.094 20.69 9.094 0 0 0-.029-.351h.064l-1.277-6.47-5.778.005a20.69 9.094 0 0 0-13.67-2.278z" fill="#333" stroke="#000" stroke-width=".282" stroke-linecap="round" stroke-linejoin="round"/><ellipse ry="6.762" rx="19.408" cy="187.341" cx="-117.074" fill="#666" stroke="#000" stroke-width=".282" stroke-linecap="round" stroke-linejoin="round"/><g transform="matrix(.1018 0 0 .10181 -158.528 145.536)" stroke="#000" stroke-linecap="round" stroke-linejoin="round" stroke-width="2.772"><ellipse cx="406.087" cy="399.216" rx="184.221" ry="72.858" fill="green"/><ellipse cx="406.23" cy="383.328" rx="179.497" ry="60.977" fill="#0f0"/></g></g><path d="M126.16 115.387c-1.523 1.514-2.14 3.307-2.023 5.326-.507 1.097-2.411 2.346-2.027 3.267-1.196 1.923-1.624 3.389-1.572 4.569-.544 1.24-.403 1.705-.348 2.268-2.266 3.497-4.092 8.255-5.878 13.125-2.302 2.765-3.64 5.792-4.898 8.84-2.191 3.7-3.756 7.67-4.02 11.394l-.265.558c2.996 3.107 4.946 1.524 7.018.747 6.637-3.112 9.504-8.52 12.212-14.025.473-1.572 1.57-3.127 3.151-4.669 4.414-4.785 6.886-10.022 9.857-15.142.228-.428.58-1.032 1.143-1.941 1.675-1.795 3.418-4.997 5.132-7.612z" fill="url(#b)" fill-rule="evenodd" stroke="#000" stroke-width=".265" transform="translate(-90.276 -115.233)"/><path d="M18.486 38.911c-2.362 2.823-3.506 6.298-4.228 10.204.518.13 1.302-.444 2.155-1.196 2.575-6.067 1.848-7.142 2.073-9.008z" fill="#f8ecf8" fill-rule="evenodd" stroke="#000" stroke-width=".265"/><path d="M33.79 5.666c2.093-.057 3.853.53 5.373 1.582M31.832 8.759c2.001.286 3.946.663 5.428 1.788M30.331 13.16c1.325-.48 3.02.099 4.83 1.005M29.98 15.593l1.79.362" fill="none" stroke="#000" stroke-width=".265"/><g transform="matrix(1.2877 0 0 1.2877 -70.904 -45.941)" stroke="green" stroke-linecap="round"><circle r="14.559" cy="73.815" cx="100.602" fill="#ececec" stroke-width=".608" stroke-linejoin="round"/><path d="M106.978 82.142h-3.353V63.316H97.54v18.678h-3.652" fill="none" stroke-width="1.521"/></g></svg>