<svg xmlns="http://www.w3.org/2000/svg" viewBox="0 0 234.62951 290.44458" id="svg30" width="234.63" height="290.445"><style id="style2">.st0{display:none}.st1{fill:none;stroke:#303030;stroke-width:.7;stroke-linecap:round;stroke-linejoin:round;stroke-miterlimit:10}.st2{fill:#303030}</style><g id="layer1" transform="translate(3.47 3.198)"><path class="st1" d="M21.358 145.947a63.75 63.75 0 0 0 1.152 11.049" id="path9" fill="none" stroke="#303030" stroke-width="6.776" stroke-linecap="round" stroke-linejoin="round" stroke-miterlimit="10"/><path class="st1" d="M48.702 92.116a64.784 64.784 0 0 0-12.559 11.68 64.99 64.99 0 0 0-12.69 24.809" id="path11" fill="none" stroke="#303030" stroke-width="6.776" stroke-linecap="round" stroke-linejoin="round" stroke-miterlimit="10"/><path id="line17" class="st1" fill="none" stroke="#303030" stroke-width="6.776" stroke-linecap="round" stroke-linejoin="round" stroke-miterlimit="10" d="M184.865 207.591L41.298 262.802"/><path id="path21-3" d="M185.448 175.07l.37.154c2.52.831 4.718 2.386 6.634 4.249 2.02 2.322 3.694 4.777 4.423 8.713 1.496 8.074-3.286 16.05-10.95 18.997l-1.06.408L41.298 262.8l-.733.283c-8.003 3.077-17.551.461-21.82-6.975-3.3-5.748-2.736-12.198.418-21.613 3.155-9.414 2.86-21.856-1.644-33.55l.041.003-12.507-32.667c-12.88-33.415-.747-70.376 27.41-90.31l-1.102-2.749c-3.685-9.583 1.14-20.438 10.723-24.124 9.583-3.685 20.439 1.14 24.124 10.723l1.654 3.239c34.881-3.556 68.594 15.855 81.318 49.33l15.24 38.432c4.795 8.723 11.831 15.955 21.028 22.248z" fill="#fff" stroke="#303030" stroke-width="7" stroke-linecap="round" stroke-linejoin="round" stroke-miterlimit="10"/><path d="M64.268 268.838l45.015-17.115s7.963 24.296-14.427 30.38c-22.39 6.086-30.588-13.265-30.588-13.265z" id="path826" fill="#fff" stroke="#000" stroke-width="7" stroke-linecap="round" stroke-linejoin="round"/></g><g id="layer3"><rect id="rect845" width="135.189" height="135.189" x="95.783" y="3.671" ry="19.847" fill="#55acee" stroke="#303030" stroke-width="7" stroke-linecap="round" stroke-linejoin="round" stroke-miterlimit="10"/></g><g id="layer4"><path class="st2" d="M172.724 52.533V27.647h-9.888L144.047 37.7l2.308 8.9 14.833-8.076h.33v74.824H172.724V52.533z" id="path7" fill="#303030" stroke-width="14.425"/></g></svg>