<svg xmlns="http://www.w3.org/2000/svg" width="352.621" height="328.166" viewBox="0 0 93.297626 86.827316"><text style="line-height:1.25;-inkscape-font-specification:ubuntu" x="42.514" y="90.458" font-weight="400" font-size="32.213" font-family="ubuntu" letter-spacing="0" word-spacing="0" stroke-width="2.013" transform="translate(-21.167 -56.576)"><tspan x="42.514" y="90.458" style="-inkscape-font-specification:'ubuntu Medium'" font-weight="500">1</tspan></text><path d="M82.577 8.301l6.424-6.173-.751 20.271-19.854-.75 6.09-6.007s-4.672-4.922-12.93-5.005c-8.26-.084-13.265 4.588-13.265 4.588l.084-6.84-5.172-2.253s8.091-6.34 18.853-5.84c10.761.501 20.521 8.01 20.521 8.01zM38.94 54.949l-6.424 6.173.75-20.271 19.855.75-6.09 6.007s4.672 4.922 12.93 5.005c8.26.084 13.264-4.588 13.264-4.588l-.083 6.84 5.172 2.253s-8.092 6.34-18.853 5.84C48.7 62.456 38.94 54.948 38.94 54.948z" fill="green" stroke="#000" stroke-width=".529"/><g transform="translate(-93.518 -9.898) scale(1.09073)" stroke="green" stroke-linecap="round"><circle r="14.559" cy="73.815" cx="100.602" fill="#ececec" stroke-width=".608" stroke-linejoin="round"/><path d="M106.978 82.142h-3.353V63.316H97.54v18.678h-3.652" fill="none" stroke-width="1.521"/></g><text style="line-height:1.25;-inkscape-font-specification:ubuntu" x="97.553" y="107.059" font-weight="400" font-size="32.213" font-family="ubuntu" letter-spacing="0" word-spacing="0" stroke-width="2.013" transform="translate(-21.167 -56.576)"><tspan x="97.553" y="107.059" style="-inkscape-font-specification:'ubuntu Medium'" font-weight="500">0</tspan></text><path d="M62.954 34.353l2.22 8.819-5.217-7.525" fill="#ccc" stroke="#000" stroke-width=".529" stroke-linecap="round" stroke-linejoin="round"/><path d="M62.083 29.816l-4.32-8.077 2.89-1.247-.693-1.606-9.365 4.042.693 1.606 2.73-1.178 3.142 8.675s-2.049 1.32-1.902 3.08c.146 1.76 1.032 2.095.89 2.182l10.598-4.59s-.534-1.897-1.759-2.446c-1.224-.549-2.904-.441-2.904-.441z" fill="red" stroke="#000" stroke-width=".529" stroke-linecap="round" stroke-linejoin="round"/></svg>