<svg xmlns="http://www.w3.org/2000/svg" width="170.997" height="156.392" viewBox="0 0 160.31005 146.61829"><path d="M78.495 143.399c-2.574-4.43-6.565-8.766-14.127-15.35-4.096-3.566-6.588-5.546-20.775-16.506-11.12-8.593-16.668-13.36-23.098-19.847C14.07 85.208 10.293 80.04 7.052 73.303 4.984 69 3.562 64.854 2.676 60.547c-1.123-5.472-1.275-7.324-1.27-15.382.008-10.573.357-12.332 3.828-19.385 2.58-5.239 4.54-7.997 8.62-12.141 3.963-4.022 6.536-5.85 12.1-8.6 6.18-3.057 10.65-3.859 19.86-3.562 7.157.232 9.776.943 15.45 4.208 8.929 5.138 15.858 13.387 17.776 21.162.313 1.27.636 2.312.719 2.312.082 0 .805-1.487 1.606-3.305 2.727-6.179 5.26-9.95 9.284-13.828 12.32-11.88 31.744-14.027 47.45-5.25 6.414 3.584 11.633 8.802 15.676 15.675 3.184 5.41 4.812 12.595 5.09 22.464.402 14.298-2.214 24.207-9.174 34.766-2.763 4.19-4.806 6.73-8.638 10.73-6.182 6.458-11.758 11.205-24.92 21.216-8.307 6.317-13.23 10.378-20.355 16.8-5.71 5.143-14.558 14.1-15.41 15.596-.372.655-.71 1.189-.749 1.189-.039 0-.544-.815-1.124-1.813z" fill="red" stroke="#000" stroke-width="2.813"/><text y="68.571" x="54.874" style="line-height:125%" font-weight="400" font-size="53.914" letter-spacing="0" word-spacing="0" transform="scale(.99853 1.00147)" font-family="sans-serif" fill="#00f"><tspan style="-inkscape-font-specification:'sans-serif Bold'" y="68.571" x="54.874" font-weight="700" font-size="30.808">DO</tspan></text><text y="100.063" x="68.321" style="line-height:125%" font-weight="400" font-size="53.914" letter-spacing="0" word-spacing="0" transform="scale(.99853 1.00147)" font-family="sans-serif" fill="#00f"><tspan style="-inkscape-font-specification:'sans-serif Bold'" y="100.063" x="68.321" font-weight="700" font-size="30.808">4</tspan></text></svg>