<svg xmlns="http://www.w3.org/2000/svg" width="197.514" height="161.086" viewBox="0 0 52.259014 42.62059"><path d="M22.153 40.47c-.727-1.25-1.853-2.474-3.987-4.332-1.156-1.006-1.86-1.565-5.863-4.658-3.138-2.425-4.704-3.77-6.519-5.601-1.813-1.831-2.88-3.29-3.794-5.191a15.321 15.321 0 0 1-1.235-3.6c-.317-1.545-.36-2.067-.358-4.342.002-2.983.1-3.48 1.08-5.47.728-1.479 1.281-2.257 2.433-3.427C5.028 2.714 5.754 2.2 7.325 1.422 9.069.56 10.33.333 12.93.417c2.02.065 2.759.266 4.36 1.188 2.52 1.45 4.475 3.777 5.017 5.972.088.358.18.652.203.652.023 0 .227-.42.453-.932.77-1.744 1.484-2.808 2.62-3.903C29.06.041 34.542-.565 38.974 1.912c1.81 1.012 3.283 2.485 4.425 4.424.898 1.527 1.358 3.555 1.436 6.34.113 4.035-.625 6.832-2.59 9.812-.779 1.182-1.355 1.899-2.437 3.028-1.745 1.823-3.318 3.162-7.033 5.988-2.344 1.782-3.734 2.929-5.745 4.74-1.611 1.452-4.108 3.98-4.349 4.402-.105.185-.2.336-.21.336-.012 0-.154-.23-.318-.512z" fill="red"/><text y="62.502" x="62.546" style="line-height:0%" font-weight="400" font-size="15.216" letter-spacing="0" word-spacing="0" transform="matrix(.99853 0 0 1.00147 -50.645 -44.99)" font-family="sans-serif" fill="#00f" stroke-width=".282"><tspan style="-inkscape-font-specification:'sans-serif Bold'" y="62.502" x="62.546" font-weight="700" font-size="8.695">usec</tspan></text><g transform="matrix(.79321 0 0 .79321 -39.33 -27.72)" stroke="green" stroke-linecap="round"><circle r="14.559" cy="73.815" cx="100.602" fill="#ececec" stroke-width=".608" stroke-linejoin="round"/><path d="M106.978 82.142h-3.353V63.316H97.54v18.678h-3.652" fill="none" stroke-width="1.521"/></g></svg>