<?xml version="1.0" encoding="UTF-8" standalone="no"?>
<svg
   xmlns:dc="http://purl.org/dc/elements/1.1/"
   xmlns:cc="http://creativecommons.org/ns#"
   xmlns:rdf="http://www.w3.org/1999/02/22-rdf-syntax-ns#"
   xmlns:svg="http://www.w3.org/2000/svg"
   xmlns="http://www.w3.org/2000/svg"
   xmlns:sodipodi="http://sodipodi.sourceforge.net/DTD/sodipodi-0.dtd"
   xmlns:inkscape="http://www.inkscape.org/namespaces/inkscape"
   width="352.621"
   height="328.166"
   viewBox="0 0 93.297626 86.827316"
   version="1.1"
   id="svg22"
   sodipodi:docname="JK-FlipFlop.svg"
   inkscape:version="0.92.3 (2405546, 2018-03-11)">
  <metadata
     id="metadata28">
    <rdf:RDF>
      <cc:Work
         rdf:about="">
        <dc:format>image/svg+xml</dc:format>
        <dc:type
           rdf:resource="http://purl.org/dc/dcmitype/StillImage" />
        <dc:title></dc:title>
      </cc:Work>
    </rdf:RDF>
  </metadata>
  <defs
     id="defs26" />
  <sodipodi:namedview
     pagecolor="#ffffff"
     bordercolor="#666666"
     borderopacity="1"
     objecttolerance="10"
     gridtolerance="10"
     guidetolerance="10"
     inkscape:pageopacity="0"
     inkscape:pageshadow="2"
     inkscape:window-width="1366"
     inkscape:window-height="705"
     id="namedview24"
     showgrid="false"
     inkscape:zoom="0.71914827"
     inkscape:cx="175.06608"
     inkscape:cy="249.14769"
     inkscape:window-x="-8"
     inkscape:window-y="-8"
     inkscape:window-maximized="1"
     inkscape:current-layer="svg22" />
  <path
     d="m 73.661009,8.6057884 6.424,-6.173 -0.751,20.2710006 -19.854,-0.75 6.09,-6.007 c 0,0 -4.672,-4.922 -12.93,-5.005 -8.26,-0.084 -13.265,4.588 -13.265,4.588 l 0.084,-6.8400006 -5.172,-2.253 c 0,0 8.091,-6.33999997 18.853,-5.83999998 10.761,0.50099998 20.521,8.00999998 20.521,8.00999998 z m -43.637,46.6480006 -6.424,6.173 0.75,-20.271 19.855,0.75 -6.09,6.007 c 0,0 4.672,4.922 12.93,5.005 8.26,0.084 13.264,-4.588 13.264,-4.588 l -0.083,6.84 5.172,2.253 c 0,0 -8.092,6.34 -18.853,5.84 -10.761,-0.502 -20.521,-8.01 -20.521,-8.01 z"
     id="path6"
     inkscape:connector-curvature="0"
     style="fill:#008000;stroke:#000000;stroke-width:0.52899998" />
  <g
     transform="matrix(0.89006273,0,0,0.89006273,-76.31299,7.896772)"
     id="g12"
     style="stroke:#008000;stroke-linecap:round">
    <circle
       r="14.559"
       cy="73.815002"
       cx="100.602"
       id="circle8"
       style="fill:#ececec;stroke-width:0.60799998;stroke-linejoin:round" />
    <path
       d="m 106.978,82.142 h -3.353 V 63.316 H 97.54 v 18.678 h -3.652"
       id="path10"
       inkscape:connector-curvature="0"
       style="fill:none;stroke-width:1.52100003" />
  </g>
  <g
     id="layer1"
     transform="matrix(0.13089091,0,0,0.13089091,43.089226,13.156109)">
    <path
       style="fill:none;stroke:#303030;stroke-width:6.77600002;stroke-linecap:round;stroke-linejoin:round;stroke-miterlimit:10"
       inkscape:connector-curvature="0"
       class="st1"
       d="m 21.358,145.947 a 63.75,63.75 0 0 0 1.152,11.049"
       id="path9"
       stroke-miterlimit="10" />
    <path
       style="fill:none;stroke:#303030;stroke-width:6.77600002;stroke-linecap:round;stroke-linejoin:round;stroke-miterlimit:10"
       inkscape:connector-curvature="0"
       class="st1"
       d="m 48.702,92.116 a 64.784,64.784 0 0 0 -12.559,11.68 64.99,64.99 0 0 0 -12.69,24.809"
       id="path11"
       stroke-miterlimit="10" />
    <path
       style="fill:none;stroke:#303030;stroke-width:6.77600002;stroke-linecap:round;stroke-linejoin:round;stroke-miterlimit:10"
       inkscape:connector-curvature="0"
       id="line17"
       class="st1"
       stroke-miterlimit="10"
       d="M 184.865,207.591 41.298,262.802" />
    <path
       style="fill:none;stroke:#303030;stroke-width:7;stroke-linecap:round;stroke-linejoin:round;stroke-miterlimit:10"
       inkscape:connector-curvature="0"
       id="path21-3"
       d="m 185.448,175.07 0.37,0.154 c 2.52,0.831 4.718,2.386 6.634,4.249 2.02,2.322 3.694,4.777 4.423,8.713 1.496,8.074 -3.286,16.05 -10.95,18.997 l -1.06,0.408 -143.567,55.209 -0.733,0.283 c -8.003,3.077 -17.551,0.461 -21.82,-6.975 -3.3,-5.748 -2.736,-12.198 0.418,-21.613 3.155,-9.414 2.86,-21.856 -1.644,-33.55 L 17.56,200.948 5.053,168.281 C -7.827,134.866 4.306,97.905 32.463,77.971 l -1.102,-2.749 c -3.685,-9.583 1.14,-20.438 10.723,-24.124 9.583,-3.685 20.439,1.14 24.124,10.723 l 1.654,3.239 c 34.881,-3.556 68.594,15.855 81.318,49.33 l 15.24,38.432 c 4.795,8.723 11.831,15.955 21.028,22.248 z"
       stroke-miterlimit="10" />
    <path
       style="fill:#ffffff;stroke:#000000;stroke-width:7;stroke-linecap:round;stroke-linejoin:round"
       inkscape:connector-curvature="0"
       d="m 64.268,268.838 45.015,-17.115 c 0,0 7.963,24.296 -14.427,30.38 -22.39,6.086 -30.588,-13.265 -30.588,-13.265 z"
       id="path826" />
  </g>
  <g
     transform="matrix(0.15636716,0,0,0.15636716,4.3603588,16.592827)"
     id="layer3">
    <rect
       style="fill:#55acee;stroke:#303030;stroke-width:7;stroke-linecap:round;stroke-linejoin:round;stroke-miterlimit:10"
       id="rect845"
       width="135.189"
       height="135.189"
       x="95.782997"
       y="3.671"
       ry="19.847"
       stroke-miterlimit="10" />
  </g>
  <g
     transform="matrix(0.15636716,0,0,0.15636716,0.6812384,36.460085)"
     id="layer4">
    <path
       style="fill:#303030;stroke-width:14.42500019"
       inkscape:connector-curvature="0"
       class="st2"
       d="m 196.25274,-74.522183 v -24.886 h -9.888 l -18.789,10.053 2.308,8.9 14.833,-8.076 h 0.33 v 74.824 h 11.206 z"
       id="path7" />
  </g>
  <g
     transform="matrix(0.15636716,0,0,0.15636716,56.458595,28.517636)"
     id="layer3-0">
    <rect
       style="fill:#55acee;stroke:#303030;stroke-width:7;stroke-linecap:round;stroke-linejoin:round;stroke-miterlimit:10"
       id="rect845-9"
       width="135.189"
       height="135.189"
       x="95.782997"
       y="3.671"
       ry="19.847"
       stroke-miterlimit="10" />
  </g>
  <g
     transform="matrix(0.15636716,0,0,0.15636716,52.389245,48.384894)"
     id="layer4-0">
    <text
       xml:space="preserve"
       style="font-style:normal;font-weight:normal;font-size:67.68260193px;line-height:1.25;font-family:sans-serif;letter-spacing:0px;word-spacing:0px;fill:#000000;fill-opacity:1;stroke:none;stroke-width:1.69206512"
       x="196.25276"
       y="-13.707177"
       id="text80"><tspan
         sodipodi:role="line"
         x="196.25276"
         y="46.176064"
         style="stroke-width:1.69206512"
         id="tspan82" /></text>
    <text
       xml:space="preserve"
       style="font-style:normal;font-weight:normal;font-size:67.68260193px;line-height:1.25;font-family:sans-serif;letter-spacing:0px;word-spacing:0px;fill:#000000;fill-opacity:1;stroke:none;stroke-width:1.69206512"
       x="100.40544"
       y="173.75996"
       id="text88"><tspan
         sodipodi:role="line"
         id="tspan86"
         x="100.40544"
         y="233.6432"
         style="stroke-width:1.69206512" /></text>
    <text
       xml:space="preserve"
       style="font-style:normal;font-weight:normal;font-size:67.68260193px;line-height:1.25;font-family:sans-serif;letter-spacing:0px;word-spacing:0px;fill:#000000;fill-opacity:1;stroke:none;stroke-width:1.69206512"
       x="150.3174"
       y="-7.5869174"
       id="text92"><tspan
         sodipodi:role="line"
         id="tspan90"
         x="150.3174"
         y="-7.5869174"
         style="font-size:126.34085846px;stroke-width:1.69206512">0</tspan></text>
  </g>
</svg>
