<svg xmlns="http://www.w3.org/2000/svg" width="519.236" height="279.911" viewBox="0 0 137.38127 74.059853"><path d="M41.506 40.152l13.608 16.672-6.918-20.534" fill="#ccc" stroke="#000" stroke-width="1.092" stroke-linecap="round" stroke-linejoin="round"/><path d="M34.122 32.088L24.89 12.475l-6.45 3.724-2.07-3.583L37.276.546l2.07 3.584-6.093 3.517 12.03 18.223s5.4-2.025 8.536.74c3.136 2.766 2.52 4.92 2.887 4.772L33.017 45.02s-2.849-3.695-2.16-6.795c.687-3.1 3.265-6.137 3.265-6.137z" fill="red" stroke="#000" stroke-width="1.092" stroke-linecap="round" stroke-linejoin="round"/><g transform="translate(-93.518 -22.665) scale(1.09073)" stroke="green" stroke-linecap="round"><circle cx="100.602" cy="73.815" r="14.559" fill="#ececec" stroke-width=".608" stroke-linejoin="round"/><path d="M106.978 82.142h-3.353V63.316H97.54v18.678h-3.652" fill="none" stroke-width="1.521"/></g><g stroke="#000" stroke-width="1.442" stroke-linecap="round" stroke-linejoin="round"><path d="M81.95 40.152l13.607 16.672L88.64 36.29" fill="#ccc" stroke-width="1.0924880399999999"/><path d="M74.566 32.088l-9.232-19.613-6.451 3.724-2.069-3.583L77.719.546l2.069 3.584-6.092 3.517 12.03 18.223s5.399-2.025 8.535.74c3.137 2.766 2.52 4.92 2.887 4.772L73.46 45.02s-2.848-3.695-2.16-6.795c.688-3.1 3.266-6.137 3.266-6.137z" fill="red" stroke-width="1.0924880399999999"/></g><g stroke="#000" stroke-width="1.442" stroke-linecap="round" stroke-linejoin="round"><path d="M121.637 40.152l13.608 16.672-6.918-20.534" fill="#ccc" stroke-width="1.0924880399999999"/><path d="M114.253 32.088l-9.232-19.613-6.45 3.724-2.07-3.583L117.407.546l2.07 3.584-6.093 3.517 12.03 18.223s5.4-2.025 8.536.74c3.136 2.766 2.52 4.92 2.887 4.772L113.147 45.02s-2.848-3.695-2.16-6.795c.688-3.1 3.266-6.137 3.266-6.137z" fill="red" stroke-width="1.0924880399999999"/></g></svg>