<?xml version="1.0" encoding="UTF-8" standalone="no"?>
<svg
   xmlns:dc="http://purl.org/dc/elements/1.1/"
   xmlns:cc="http://creativecommons.org/ns#"
   xmlns:rdf="http://www.w3.org/1999/02/22-rdf-syntax-ns#"
   xmlns:svg="http://www.w3.org/2000/svg"
   xmlns="http://www.w3.org/2000/svg"
   xmlns:sodipodi="http://sodipodi.sourceforge.net/DTD/sodipodi-0.dtd"
   xmlns:inkscape="http://www.inkscape.org/namespaces/inkscape"
   width="519.236"
   height="347.269"
   viewBox="0 0 137.38127 91.881653"
   version="1.1"
   id="svg31"
   sodipodi:docname="RegSePa.svg"
   inkscape:version="0.92.3 (2405546, 2018-03-11)">
  <metadata
     id="metadata35">
    <rdf:RDF>
      <cc:Work
         rdf:about="">
        <dc:format>image/svg+xml</dc:format>
        <dc:type
           rdf:resource="http://purl.org/dc/dcmitype/StillImage" />
      </cc:Work>
    </rdf:RDF>
  </metadata>
  <sodipodi:namedview
     pagecolor="#ffffff"
     bordercolor="#666666"
     borderopacity="1"
     objecttolerance="10"
     gridtolerance="10"
     guidetolerance="10"
     inkscape:pageopacity="0"
     inkscape:pageshadow="2"
     inkscape:window-width="1366"
     inkscape:window-height="705"
     id="namedview33"
     showgrid="false"
     inkscape:zoom="0.67958842"
     inkscape:cx="54.34671"
     inkscape:cy="173.63451"
     inkscape:window-x="-8"
     inkscape:window-y="-8"
     inkscape:window-maximized="1"
     inkscape:current-layer="svg31" />
  <defs
     id="defs5">
    <marker
       orient="auto"
       id="a"
       overflow="visible">
      <path
         d="M-5.231-2.42L1.324-.01-5.23 2.401c1.047-1.423 1.041-3.37 0-4.821z"
         fill="#00f"
         fill-rule="evenodd"
         stroke="#00f"
         stroke-width=".375"
         stroke-linejoin="round"
         id="path2" />
    </marker>
  </defs>
  <path
     d="M41.506 57.974l13.608 16.672-6.918-20.535"
     fill="#ccc"
     stroke="#000"
     stroke-width="1.092"
     stroke-linecap="round"
     stroke-linejoin="round"
     id="path7" />
  <path
     d="M34.122 49.91L24.89 30.296l-6.45 3.724-2.07-3.584 20.905-12.069 2.07 3.584-6.093 3.517 12.03 18.223s5.4-2.025 8.536.74c3.136 2.766 2.52 4.92 2.887 4.772L33.017 62.842s-2.849-3.696-2.16-6.796c.687-3.1 3.265-6.136 3.265-6.136z"
     fill="red"
     stroke="#000"
     stroke-width="1.092"
     stroke-linecap="round"
     stroke-linejoin="round"
     id="path9" />
  <g
     transform="translate(-93.518 -4.843) scale(1.09073)"
     stroke="green"
     stroke-linecap="round"
     id="g15">
    <circle
       cx="100.602"
       cy="73.815"
       r="14.559"
       fill="#ececec"
       stroke-width=".608"
       stroke-linejoin="round"
       id="circle11" />
    <path
       d="M106.978 82.142h-3.353V63.316H97.54v18.678h-3.652"
       fill="none"
       stroke-width="1.521"
       id="path13" />
  </g>
  <g
     stroke="#000"
     stroke-width="1.442"
     stroke-linecap="round"
     stroke-linejoin="round"
     id="g21">
    <path
       d="M81.95 57.974l13.607 16.671-6.918-20.534"
       fill="#ccc"
       stroke-width="1.0924880399999999"
       id="path17" />
    <path
       d="M74.566 49.91l-9.232-19.613-6.451 3.724-2.069-3.584 20.905-12.069 2.069 3.584-6.092 3.517 12.03 18.223s5.399-2.025 8.535.74c3.137 2.766 2.52 4.92 2.887 4.772L73.46 62.842s-2.848-3.696-2.16-6.796c.688-3.1 3.266-6.137 3.266-6.137z"
       fill="red"
       stroke-width="1.0924880399999999"
       id="path19" />
  </g>
  <g
     stroke="#000"
     stroke-width="1.442"
     stroke-linecap="round"
     stroke-linejoin="round"
     id="g27">
    <path
       d="M121.637 57.974l13.608 16.671-6.918-20.534"
       fill="#ccc"
       stroke-width="1.0924880399999999"
       id="path23" />
    <path
       d="M114.253 49.91l-9.232-19.613-6.45 3.724-2.07-3.584 20.905-12.069 2.07 3.584-6.093 3.517 12.03 18.223s5.4-2.025 8.536.74c3.136 2.766 2.52 4.92 2.887 4.772l-23.689 13.638s-2.848-3.696-2.16-6.796c.688-3.1 3.266-6.137 3.266-6.137z"
       fill="red"
       stroke-width="1.0924880399999999"
       id="path25" />
  </g>
  <path
     d="m 19.175,6.848 h 108.48"
     id="path29"
     inkscape:connector-curvature="0"
     style="fill:none;stroke:#0000ff;stroke-width:2.64599991;marker-end:url(#a)" />
</svg>
