<svg xmlns="http://www.w3.org/2000/svg" width="214.451" height="214.451" viewBox="0 0 214.45128 214.45128"><circle cx="107.226" cy="107.226" r="107.226" fill="#4d4d4d"/><path d="M107.363 38.297c14.504.03 29.212 4.552 40.7 13.5 8.077 9.303-7.312 19.268-14.243 10.195-20.865-12.624-50.29-8.18-65.988 10.695-8.352 9.367-13.058 21.866-13.003 34.413h13.789c-7.353 11.037-14.707 22.066-22.06 33.095l-22.062-33.087h13.788c-.439-29.962 21.108-58.462 50.032-66.221 6.212-1.701 12.607-2.654 19.048-2.587zm60.53 35.85l22.063 33.092h-13.789c.39 30.318-21.706 59.137-51.14 66.487-19.862 5.547-42.32 1.5-58.645-11.19-8.329-9.459 7.274-19.328 14.27-10.173 20.214 12.265 48.524 8.375 64.48-9.142 9.242-9.522 14.56-22.711 14.489-35.982h-13.789l22.062-33.092z" fill="#fbfbc9"/></svg>