<svg xmlns="http://www.w3.org/2000/svg" viewBox="0 0 293.13756 181.35395" width="293.137" height="181.354"><circle cx="149.086" cy="90.681" r="70.101" fill="#fff"/><path d="M149.086 13.679c-42.531 0-77.003 34.472-77.003 77.002 0 42.531 34.472 77.003 77.003 77.003 42.53 0 77.003-34.472 77.003-77.003 0-42.53-34.472-77.002-77.003-77.002zm0 145.175c-37.673 0-68.173-30.539-68.173-68.173 0-37.633 30.539-68.172 68.173-68.172 37.633 0 68.172 30.539 68.172 68.172 0 37.634-30.538 68.173-68.172 68.173z" fill="#333"/><path d="M146.772 30.683h4.627v18.2h-4.627zM89.125 92.965v-4.627h18.2v4.627zm62.261 57.665h-4.627v-18.2h4.627zm57.647-62.28v4.628h-18.2V88.35zM105.044 49.905l3.272-3.272 12.87 12.87-3.273 3.271zm3.28 84.79l-3.27-3.272 12.868-12.87 3.272 3.272zm84.774-3.265l-3.272 3.273-12.87-12.87 3.273-3.272zM189.85 46.64l3.272 3.272-12.87 12.87-3.271-3.272z" fill="#333"/><circle cx="149.086" cy="90.681" r="4.781" fill="#333"/><path d="M149.795 70.653l2.722.288-2.109 19.9-2.722-.288z" fill="#333"/><path d="M181.26 72.13l1.276 2.422-32.859 17.296-1.275-2.422z" fill="#333"/><path d="M152.016 80.386c-1.08 0-1.928.887-1.928 1.928 0 .656.309 1.234.81 1.581l-14.691 41.451 1.002.347 14.691-41.45h.116c1.08 0 1.928-.888 1.928-1.929a1.934 1.934 0 0 0-1.928-1.928z" fill="#cf000f"/><text y="44.949" x="1.863" style="line-height:0%" font-weight="400" font-size="69.516" letter-spacing="0" word-spacing="0" transform="scale(.99853 1.00147)" font-family="sans-serif" fill="#00f" stroke-width="1.289"><tspan style="-inkscape-font-specification:'sans-serif Bold'" y="44.949" x="1.863" font-weight="700" font-size="39.724">ms</tspan></text><g transform="matrix(2.99796 0 0 2.99796 -53.023 -84.502)" stroke="green" stroke-linecap="round"><circle r="14.559" cy="73.815" cx="100.602" fill="#ececec" stroke-width=".608" stroke-linejoin="round"/><path d="M106.978 82.142h-3.353V63.316H97.54v18.678h-3.652" fill="none" stroke-width="1.521"/></g><g transform="matrix(2.99796 0 0 2.99796 -257.041 -84.502)" stroke="green" stroke-linecap="round"><circle r="14.559" cy="73.815" cx="100.602" fill="#ececec" stroke-width=".608" stroke-linejoin="round"/><path d="M106.978 82.142h-3.353V63.316H97.54v18.678h-3.652" fill="none" stroke-width="1.521"/></g><circle cx="248.578" cy="44.56" r="43.648" fill="#ececec" stroke="green" stroke-width="1.824" stroke-linecap="round" stroke-linejoin="round"/><path d="M279.216 57.21h-5.01V30.018h-51.31v26.98h-5.456" fill="none" stroke="green" stroke-width="4.56" stroke-linecap="round"/></svg>