<svg xmlns="http://www.w3.org/2000/svg" width="327.118" height="304.435" viewBox="0 0 86.549973 80.548402"><defs><marker id="a" orient="auto" overflow="visible"><path d="M2.308 0l-3.46 2v-4z" fill="#00f" fill-rule="evenodd" stroke="#00f" stroke-width=".5332"/></marker></defs><g transform="translate(-59.162 -4.54)"><path d="M138.803 48.49V16.91" fill="#00f" stroke="#00f" stroke-width="2.806" stroke-linecap="round" stroke-linejoin="round" marker-end="url(#a)"/><rect rx="2.807" ry="2.807" y="5.289" x="99.747" height="47.849" width="29.538" fill="#666" stroke="#000" stroke-width="1.497" stroke-linecap="round" stroke-linejoin="round"/><text transform="scale(.94516 1.05802)" y="40.921" x="108.575" style="line-height:0%" font-weight="400" font-size="8.982" font-family="sans-serif" letter-spacing="0" word-spacing="0" fill="#fff" stroke="#000" stroke-width="1.497"><tspan style="line-height:1.25;-inkscape-font-specification:'sans-serif Bold'" y="40.921" x="108.575" font-weight="700" font-size="35.656">0</tspan></text><path d="M100.868 30.283h27.764" fill="#fff" stroke="#000" stroke-width="2.245" stroke-linecap="square" stroke-linejoin="round"/><rect rx="2.807" ry="2.807" y="5.289" x="66.333" height="47.849" width="29.538" fill="#666" stroke="#000" stroke-width="1.497" stroke-linecap="round" stroke-linejoin="round"/><text transform="scale(.94516 1.05802)" y="40.921" x="73.223" style="line-height:0%" font-weight="400" font-size="8.982" font-family="sans-serif" letter-spacing="0" word-spacing="0" fill="#fff" stroke="#000" stroke-width="1.497"><tspan style="line-height:1.25;-inkscape-font-specification:'sans-serif Bold'" y="40.921" x="73.223" font-weight="700" font-size="35.656">0</tspan></text><path d="M67.454 30.283h27.764" fill="#fff" stroke="#000" stroke-width="2.245" stroke-linecap="square" stroke-linejoin="round"/><g transform="matrix(1.00937 0 0 1.00937 -27.38 -4.42)" stroke="green" stroke-linecap="round"><circle r="14.559" cy="73.815" cx="100.602" fill="#ececec" stroke-width=".608" stroke-linejoin="round"/><path d="M106.978 82.142h-3.353V63.316H97.54v18.678h-3.652" fill="none" stroke-width="1.521"/></g><g transform="matrix(1.00937 0 0 1.00937 28.939 -4.42)" stroke="green" stroke-linecap="round"><circle r="14.559" cy="73.815" cx="100.602" fill="#ececec" stroke-width=".608" stroke-linejoin="round"/><path d="M106.978 82.142h-3.353V63.316H97.54v18.678h-3.652" fill="none" stroke-width="1.521"/></g></g></svg>