<?xml version="1.0" encoding="UTF-8" standalone="no"?>
<svg
   xmlns:dc="http://purl.org/dc/elements/1.1/"
   xmlns:cc="http://creativecommons.org/ns#"
   xmlns:rdf="http://www.w3.org/1999/02/22-rdf-syntax-ns#"
   xmlns:svg="http://www.w3.org/2000/svg"
   xmlns="http://www.w3.org/2000/svg"
   xmlns:sodipodi="http://sodipodi.sourceforge.net/DTD/sodipodi-0.dtd"
   xmlns:inkscape="http://www.inkscape.org/namespaces/inkscape"
   viewBox="0 0 191.71163 312.47308"
   width="191.71147"
   height="312.47269"
   version="1.1"
   id="svg6"
   sodipodi:docname="cod.svg"
   inkscape:version="0.92.3 (2405546, 2018-03-11)">
  <metadata
     id="metadata12">
    <rdf:RDF>
      <cc:Work
         rdf:about="">
        <dc:format>image/svg+xml</dc:format>
        <dc:type
           rdf:resource="http://purl.org/dc/dcmitype/StillImage" />
        <dc:title></dc:title>
      </cc:Work>
    </rdf:RDF>
  </metadata>
  <defs
     id="defs10" />
  <sodipodi:namedview
     pagecolor="#ffffff"
     bordercolor="#666666"
     borderopacity="1"
     objecttolerance="10"
     gridtolerance="10"
     guidetolerance="10"
     inkscape:pageopacity="0"
     inkscape:pageshadow="2"
     inkscape:window-width="1366"
     inkscape:window-height="705"
     id="namedview8"
     showgrid="false"
     fit-margin-bottom="0.1"
     fit-margin-top="0"
     fit-margin-left="0"
     fit-margin-right="0"
     inkscape:zoom="0.75550707"
     inkscape:cx="-169.51704"
     inkscape:cy="157.60978"
     inkscape:window-x="-8"
     inkscape:window-y="-8"
     inkscape:window-maximized="1"
     inkscape:current-layer="g3724" />
  <g
     id="g3724"
     transform="translate(57.40738)">
    <g
       id="g4555"
       transform="translate(-6.8386148)">
      <path
         d="m 92.804,72.842 c 0,-6.286 -1.871,-12.518 -5.412,-18.025 C 80.086,43.465 76.225,29.893 76.225,15.57 V 5.629 A 5.63,5.63 0 0 0 70.596,0 H 22.209 a 5.63,5.63 0 0 0 -5.63,5.629 v 9.941 c 0,14.324 -3.86,27.895 -11.167,39.25 C 1.872,60.323 0,66.555 0,72.842 c 0,9.492 4.122,18.426 11.65,25.43 v 44.017 c 0,19.164 15.588,34.755 34.749,34.755 19.164,0 34.755,-15.59 34.755,-34.755 V 98.273 c 7.528,-7.005 11.65,-15.938 11.65,-25.431 z M 69.896,142.29 c 0,12.956 -10.541,23.497 -23.497,23.497 -12.953,0 -23.49,-10.541 -23.49,-23.497 V 92.11 c 0,-6.38 2.55,-12.304 6.872,-16.623 1.274,8.027 8.24,14.184 16.62,14.184 8.375,0 15.338,-6.15 16.618,-14.169 4.435,4.439 6.877,10.336 6.877,16.607 v 50.18 z M 40.828,72.84 V 50.438 c 0,-3.072 2.5,-5.572 5.572,-5.572 3.073,0 5.573,2.5 5.573,5.572 v 22.404 c 0,3.073 -2.5,5.573 -5.573,5.573 A 5.578,5.578 0 0 1 40.828,72.842 Z M 79.58,81.737 C 77.93,76.435 75.012,71.575 70.973,67.536 A 34.654,34.654 0 0 0 63.231,61.707 V 50.438 c 0,-9.28 -7.55,-16.83 -16.83,-16.83 -9.28,0 -16.83,7.55 -16.83,16.83 V 61.695 A 34.626,34.626 0 0 0 13.223,81.739 c -1.29,-2.834 -1.966,-5.834 -1.966,-8.896 0,-4.181 1.219,-8.196 3.622,-11.932 8.477,-13.173 12.958,-28.851 12.958,-45.34 v -4.313 h 37.13 v 4.312 c 0,16.489 4.48,32.167 12.957,45.339 2.403,3.737 3.622,7.752 3.622,11.933 0,3.062 -0.677,6.062 -1.966,8.895 z"
         id="path2"
         inkscape:connector-curvature="0"
         style="fill:#0000ff" />
      <path
         d="m 46.4,119.636 c -8.29,0 -15.037,6.746 -15.037,15.038 v 7.617 c 0,8.291 6.746,15.037 15.038,15.037 8.292,0 15.038,-6.746 15.038,-15.037 v -7.617 c 0,-8.292 -6.747,-15.038 -15.038,-15.038 z m 3.78,22.655 a 3.784,3.784 0 0 1 -3.78,3.78 3.784,3.784 0 0 1 -3.779,-3.78 v -7.617 a 3.784,3.784 0 0 1 3.78,-3.78 3.784,3.784 0 0 1 3.78,3.78 z m -21.7,49.071 h 18.818 a 5.63,5.63 0 0 0 0,-11.258 H 28.48 a 5.63,5.63 0 0 0 0,11.258 z m 35.845,2.217 h -18.82 a 5.63,5.63 0 0 0 0,11.258 h 18.82 a 5.63,5.63 0 0 0 0,-11.258 z M 28.48,218.311 h 18.818 a 5.63,5.63 0 0 0 0,-11.258 H 28.48 a 5.63,5.63 0 0 0 0,11.258 z m 35.845,2.218 h -18.82 a 5.63,5.63 0 0 0 0,11.258 h 18.82 a 5.63,5.63 0 0 0 0,-11.258 z m -11.398,19.104 a 5.63,5.63 0 0 0 -5.629,-5.629 H 28.48 a 5.63,5.63 0 0 0 0,11.258 H 47.3 a 5.63,5.63 0 0 0 5.628,-5.629 z m 11.398,7.847 h -18.82 a 5.63,5.63 0 0 0 0,11.257 h 18.82 a 5.63,5.63 0 0 0 0,-11.258 z m -11.398,18.933 a 5.63,5.63 0 0 0 -5.629,-5.629 H 28.48 a 5.63,5.63 0 0 0 0,11.258 H 47.3 a 5.63,5.63 0 0 0 5.628,-5.629 z m 11.398,7.847 h -18.82 a 5.63,5.63 0 0 0 0,11.258 h 18.82 a 5.63,5.63 0 0 0 0,-11.258 z m -11.398,19.01 a 5.63,5.63 0 0 0 -5.629,-5.63 H 28.48 a 5.63,5.63 0 0 0 0,11.258 H 47.3 a 5.63,5.63 0 0 0 5.628,-5.629 z m 11.398,7.845 h -18.82 a 5.63,5.63 0 0 0 0,11.258 h 18.82 a 5.63,5.63 0 0 0 0,-11.258 z"
         id="path4"
         inkscape:connector-curvature="0"
         style="fill:#0000ff" />
    </g>
    <text
       xml:space="preserve"
       style="font-style:normal;font-weight:normal;font-size:40px;line-height:1.25;font-family:sans-serif;letter-spacing:0px;word-spacing:0px;fill:#000000;fill-opacity:1;stroke:none"
       x="-225.67125"
       y="-9.9698296"
       id="text4533"
       transform="rotate(-90)"><tspan
         sodipodi:role="line"
         id="tspan4531"
         x="-225.67125"
         y="-9.9698296"
         style="font-style:normal;font-variant:normal;font-weight:bold;font-stretch:normal;font-size:64.00006866px;font-family:Tahoma;-inkscape-font-specification:'Tahoma Bold';fill:#0000ff;fill-opacity:1">DEC</tspan></text>
    <text
       xml:space="preserve"
       style="font-style:normal;font-weight:normal;font-size:40px;line-height:1.25;font-family:sans-serif;letter-spacing:0px;word-spacing:0px;fill:#000000;fill-opacity:1;stroke:none;stroke-width:1"
       x="-220.37679"
       y="134.30429"
       id="text4533-9"
       transform="rotate(-90)"><tspan
         sodipodi:role="line"
         id="tspan4531-6"
         x="-220.37679"
         y="134.30429"
         style="font-style:normal;font-variant:normal;font-weight:bold;font-stretch:normal;font-size:64.00006866px;font-family:Tahoma;-inkscape-font-specification:'Tahoma Bold';fill:#0000ff;fill-opacity:1;stroke-width:1">BIN</tspan></text>
  </g>
</svg>
