<svg xmlns="http://www.w3.org/2000/svg" width="80.833" height="158.56" viewBox="0 0 75.781585 148.65066"><path d="M74.375 36.836c0-12.691-6.99-24.413-18.326-30.729-11.335-6.316-25.284-6.262-36.568.141C8.198 12.652 1.304 24.427 1.407 37.118v74.415c-.103 12.69 6.79 24.466 18.074 30.87 11.284 6.403 25.233 6.457 36.568.14 11.336-6.316 18.326-18.037 18.326-30.728z" fill="none" stroke="#00f" stroke-width="2.813" stroke-linecap="round" stroke-linejoin="round"/><text style="line-height:125%" x="7.448" y="91.518" transform="matrix(1.00472 0 0 .9953 20.25 33.697)" font-weight="400" font-size="33.509" font-family="sans-serif" letter-spacing="0" word-spacing="0"><tspan x="7.448" y="91.518">0</tspan></text><text style="line-height:125%" x="7.359" y="14.582" transform="matrix(1.00472 0 0 .9953 20.25 33.697)" font-weight="400" font-size="33.509" font-family="sans-serif" letter-spacing="0" word-spacing="0"><tspan x="7.359" y="14.582">1</tspan></text></svg>