<svg xmlns="http://www.w3.org/2000/svg" width="354.768" height="241.058" viewBox="0 0 332.59497 225.99201"><path d="M164.218 77.643L103.07 16.705C92.386 6.25 78.036.461 63.11.5H.5v26.186l61.698.046c8.012-.043 15.705 3.133 21.47 8.81l61.448 61.315a57.292 57.292 0 0 0 39.993 16.139 57.292 57.292 0 0 0-39.993 16.14L83.668 190.45c-5.765 5.677-13.458 8.853-21.47 8.81L.5 199.306v26.186h62.612c14.924.039 29.463-5.9 40.204-16.28l60.902-60.863a29.857 29.857 0 0 1 21.347-8.81l146.53-.113V86.457H185.571a29.884 29.884 0 0 1-21.353-8.814z" fill="green" stroke="#000" stroke-linecap="round" stroke-linejoin="round"/></svg>