<svg xmlns="http://www.w3.org/2000/svg" width="165.784" height="222.76" viewBox="0 0 43.863567 58.938523"><rect width="42.906" height="57.981" x="6.108" y="-145.921" ry=".555" fill="#8a7a7a" stroke="#000" stroke-width=".958" stroke-linejoin="round" transform="translate(-5.63 146.4)"/><g transform="translate(-5.63 146.4)"><path d="M14.12-121.766c-.188-.61 2.966-16.632 3.196-16.837.23-.204 1.125-.742 1.355-.716.23.026 2.916 2.968 3.018 3.3.102.333-2.318 14.76-2.557 15.148-.18.292-1.765 1.97-2.353 1.92-.588-.052-2.471-2.204-2.66-2.815zM19.592-139.652l2.276 2.764 16.007-.18s3.708-2.814 3.478-3.454c-.23-.64-1.177-1.1-1.177-1.1s-18.027-.128-18.999.205c-.971.332-1.687 1.049-1.687 1.28 0 .23.102.485.102.485zM35.86-120.476c-.319-.835 2.55-15.94 2.694-16.193.145-.253 3.2-2.696 3.67-2.642.47.055 1.32.742 1.447 1.122.127.38-2.44 16.428-2.604 16.808-.162.38-2.404 2.57-3.001 2.624-.597.054-1.887-.884-2.206-1.719zM19.84-120.367c.718-.191 14.133-.158 14.818-.008.684.15 2.143 1.512 2.169 2.344.025.832-1.509 1.868-2.123 2.252-.613.384-14.626.333-15.086.102-.46-.23-2.302-1.919-2.302-2.482 0-.563 1.806-2.018 2.524-2.209zM12.893-114.857c.344-.682 2.684-2.508 3.4-2.534.716-.025 1.586 1.1 1.688 1.69.102.588-2.685 16.682-3.068 17.296-.384.614-2.813 2.815-3.427 2.84-.614.026-1.687-1.228-1.764-1.842-.077-.614 2.826-16.769 3.17-17.45zM15.756-98.2c.939-.44 16.037-.55 16.596-.307.558.243 2.608 2.2 2.66 2.994.05.793-1.382 1.867-1.97 1.97-.588.102-19.51.716-20.047.384-.537-.333-1.074-.998-1.125-1.459-.051-.46 2.948-3.142 3.886-3.582zM32.53-99.966c-.35-1.035 2.336-14.684 2.553-15.118.217-.435 1.49-2.029 2.314-1.954.824.074 2.17 1.592 2.423 2.28.253.687-1.829 18.785-3.313 18.83-1.484.043-3.625-3.002-3.976-4.038z" fill="red" stroke="#000" stroke-width=".958"/><ellipse cx="43.78" cy="-97.407" rx="2.875" ry="2.877" fill="red" stroke="#000" stroke-width=".958" stroke-linejoin="round"/><text style="line-height:1.25" x="100.815" y="242.206" font-weight="400" font-size="10.583" font-family="sans-serif" letter-spacing="0" word-spacing="0" stroke-width=".265"/><text style="line-height:1.25" x="6.245" y="-88.731" font-weight="400" font-size="13.108" font-family="sans-serif" letter-spacing="0" word-spacing="0" stroke-width=".328"><tspan x="6.245" y="-88.731" style="-inkscape-font-specification:'sans-serif Bold'" font-weight="700" fill="#ff0">HEX</tspan></text></g></svg>