<svg xmlns="http://www.w3.org/2000/svg" width="354.768" height="241.058" viewBox="0 0 332.59497 225.99201"><path d="M168.377 77.643l61.147-60.938C240.21 6.25 254.56.461 269.484.5h62.611v26.186l-61.698.046c-8.012-.043-15.705 3.133-21.47 8.81L187.48 96.857a57.292 57.292 0 0 1-39.993 16.139 57.292 57.292 0 0 1 39.993 16.14l61.448 61.314c5.765 5.677 13.458 8.853 21.47 8.81l61.698.046v26.186h-62.612c-14.924.039-29.463-5.9-40.204-16.28l-60.902-60.863a29.857 29.857 0 0 0-21.347-8.81L.5 139.427V86.457h146.524a29.884 29.884 0 0 0 21.353-8.814z" fill="green" stroke="#000" stroke-linecap="round" stroke-linejoin="round"/></svg>