<?xml version="1.0" encoding="UTF-8" standalone="no"?>
<svg
   xmlns:dc="http://purl.org/dc/elements/1.1/"
   xmlns:cc="http://creativecommons.org/ns#"
   xmlns:rdf="http://www.w3.org/1999/02/22-rdf-syntax-ns#"
   xmlns:svg="http://www.w3.org/2000/svg"
   xmlns="http://www.w3.org/2000/svg"
   xmlns:sodipodi="http://sodipodi.sourceforge.net/DTD/sodipodi-0.dtd"
   xmlns:inkscape="http://www.inkscape.org/namespaces/inkscape"
   viewBox="0 0 191.71163 310.2701"
   width="191.71147"
   height="310.26971"
   version="1.1"
   id="svg6"
   sodipodi:docname="cod-dec-bin.svg"
   inkscape:version="0.92.3 (2405546, 2018-03-11)">
  <metadata
     id="metadata12">
    <rdf:RDF>
      <cc:Work
         rdf:about="">
        <dc:format>image/svg+xml</dc:format>
        <dc:type
           rdf:resource="http://purl.org/dc/dcmitype/StillImage" />
        <dc:title></dc:title>
      </cc:Work>
    </rdf:RDF>
  </metadata>
  <defs
     id="defs10" />
  <sodipodi:namedview
     pagecolor="#ffffff"
     bordercolor="#666666"
     borderopacity="1"
     objecttolerance="10"
     gridtolerance="10"
     guidetolerance="10"
     inkscape:pageopacity="0"
     inkscape:pageshadow="2"
     inkscape:window-width="1366"
     inkscape:window-height="705"
     id="namedview8"
     showgrid="false"
     fit-margin-bottom="0.1"
     fit-margin-top="0"
     fit-margin-left="0"
     fit-margin-right="0"
     inkscape:zoom="0.75550707"
     inkscape:cx="-347.12581"
     inkscape:cy="155.94634"
     inkscape:window-x="-8"
     inkscape:window-y="-8"
     inkscape:window-maximized="1"
     inkscape:current-layer="g3724" />
  <g
     id="g3724"
     transform="translate(56.501129,-0.53951944)">
    <text
       xml:space="preserve"
       style="font-style:normal;font-weight:normal;font-size:40px;line-height:1.25;font-family:sans-serif;letter-spacing:0px;word-spacing:0px;fill:#000000;fill-opacity:1;stroke:none"
       x="-225.67125"
       y="-9.9698296"
       id="text4533"
       transform="rotate(-90)"><tspan
         sodipodi:role="line"
         id="tspan4531"
         x="-225.67125"
         y="-9.9698296"
         style="font-style:normal;font-variant:normal;font-weight:bold;font-stretch:normal;font-size:64.00006866px;font-family:Tahoma;-inkscape-font-specification:'Tahoma Bold';fill:#0000ff;fill-opacity:1">BIN</tspan></text>
    <text
       xml:space="preserve"
       style="font-style:normal;font-weight:normal;font-size:40px;line-height:1.25;font-family:sans-serif;letter-spacing:0px;word-spacing:0px;fill:#000000;fill-opacity:1;stroke:none;stroke-width:1"
       x="-229.64209"
       y="134.30429"
       id="text4533-9"
       transform="rotate(-90)"><tspan
         sodipodi:role="line"
         id="tspan4531-6"
         x="-229.64209"
         y="134.30429"
         style="font-style:normal;font-variant:normal;font-weight:bold;font-stretch:normal;font-size:64.00006866px;font-family:Tahoma;-inkscape-font-specification:'Tahoma Bold';fill:#0000ff;fill-opacity:1;stroke-width:1">DEC</tspan></text>
    <g
       transform="matrix(0.87005138,0,0,0.87005138,-33.124078,0.45272767)"
       id="g26">
      <path
         style="fill:#0000ff"
         inkscape:connector-curvature="0"
         id="path2"
         d="m 130.817,197.651 c 0,-6.286 -1.87,-12.518 -5.411,-18.025 -7.306,-11.352 -11.168,-24.924 -11.168,-39.247 v -9.94 a 5.63,5.63 0 0 0 -5.629,-5.63 H 60.222 a 5.63,5.63 0 0 0 -5.629,5.63 v 9.94 c 0,14.324 -3.861,27.895 -11.168,39.25 -3.54,5.504 -5.412,11.736 -5.412,18.023 0,9.492 4.123,18.426 11.65,25.43 v 44.017 c 0,19.164 15.589,34.755 34.75,34.755 19.163,0 34.754,-15.59 34.754,-34.755 v -44.017 c 7.528,-7.004 11.65,-15.938 11.65,-25.43 z M 107.91,267.1 c 0,12.956 -10.54,23.497 -23.497,23.497 -12.953,0 -23.49,-10.541 -23.49,-23.497 v -50.18 c 0,-6.38 2.55,-12.304 6.872,-16.623 1.274,8.027 8.241,14.184 16.62,14.184 8.375,0 15.339,-6.149 16.619,-14.169 4.434,4.439 6.877,10.336 6.877,16.608 V 267.1 Z M 78.842,197.65 v -22.403 c 0,-3.073 2.499,-5.573 5.572,-5.573 3.073,0 5.572,2.5 5.572,5.573 v 22.403 c 0,3.073 -2.5,5.573 -5.572,5.573 a 5.578,5.578 0 0 1 -5.572,-5.573 z m 38.752,8.896 c -1.651,-5.302 -4.569,-10.162 -8.608,-14.201 a 34.654,34.654 0 0 0 -7.742,-5.829 v -11.269 c 0,-9.28 -7.55,-16.83 -16.83,-16.83 -9.28,0 -16.83,7.55 -16.83,16.83 v 11.257 a 34.626,34.626 0 0 0 -16.348,20.044 c -1.29,-2.834 -1.966,-5.834 -1.966,-8.896 0,-4.181 1.219,-8.196 3.622,-11.932 8.478,-13.173 12.958,-28.851 12.958,-45.34 v -4.313 h 37.13 v 4.312 c 0,16.489 4.48,32.167 12.957,45.339 2.404,3.737 3.623,7.752 3.623,11.933 -0.001,3.062 -0.677,6.062 -1.966,8.895 z" />
      <path
         style="fill:#0000ff"
         inkscape:connector-curvature="0"
         id="path4"
         d="m 84.414,244.445 c -8.291,0 -15.038,6.746 -15.038,15.038 v 7.617 c 0,8.291 6.746,15.037 15.038,15.037 8.292,0 15.038,-6.746 15.038,-15.037 v -7.617 c 0,-8.292 -6.746,-15.038 -15.038,-15.038 z m 3.78,22.655 a 3.784,3.784 0 0 1 -3.78,3.78 3.784,3.784 0 0 1 -3.78,-3.78 v -7.617 a 3.784,3.784 0 0 1 3.78,-3.78 3.784,3.784 0 0 1 3.78,3.78 z m -21.701,49.07 h 18.819 a 5.63,5.63 0 0 0 0,-11.257 h -18.82 a 5.63,5.63 0 0 0 0,11.258 z m 35.845,2.218 H 83.52 a 5.63,5.63 0 0 0 0,11.258 h 18.82 a 5.63,5.63 0 0 0 0,-11.258 z M 66.493,343.12 h 18.819 a 5.63,5.63 0 0 0 0,-11.257 h -18.82 a 5.63,5.63 0 0 0 0,11.258 z m 35.845,2.218 H 83.52 a 5.63,5.63 0 0 0 0,11.258 h 18.82 a 5.63,5.63 0 0 0 0,-11.258 z M 10.525,30.22 19.817,13.856 a 5.63,5.63 0 0 0 -9.79,-5.56 L 0.735,24.662 a 5.63,5.63 0 0 0 9.79,5.56 z m 144.83,2.306 -11.64,-14.788 a 5.63,5.63 0 0 0 -8.846,6.963 l 11.64,14.788 a 5.63,5.63 0 0 0 8.846,-6.963 z M 30.63,45.73 42.189,30.879 a 5.63,5.63 0 0 0 -8.884,-6.915 l -11.56,14.85 a 5.63,5.63 0 0 0 8.884,6.915 z m 104.244,2.518 -13.616,-12.991 a 5.63,5.63 0 0 0 -7.771,8.145 l 13.615,12.991 a 5.63,5.63 0 0 0 7.772,-8.145 z M 63.518,45.414 A 5.63,5.63 0 0 0 55.564,45.085 L 41.718,57.831 a 5.63,5.63 0 0 0 7.625,8.283 L 63.188,53.368 a 5.63,5.63 0 0 0 0.33,-7.954 z m 54.337,21.891 -16.457,-9.129 a 5.63,5.63 0 0 0 -5.461,9.845 l 16.456,9.129 a 5.63,5.63 0 0 0 5.462,-9.845 z m -37.688,4.897 a 5.63,5.63 0 0 0 -7.417,-2.89 l -17.231,7.565 a 5.63,5.63 0 0 0 4.526,10.308 l 17.231,-7.566 a 5.63,5.63 0 0 0 2.89,-7.417 z M 107.766,88.12 89.63,83.1 a 5.63,5.63 0 0 0 -3.003,10.85 l 18.138,5.02 a 5.63,5.63 0 0 0 3.002,-10.85 z m -17.332,11.947 a 5.63,5.63 0 0 0 -7.016,-3.76 l -18.015,5.44 a 5.63,5.63 0 0 0 3.255,10.777 l 18.015,-5.44 a 5.63,5.63 0 0 0 3.761,-7.017 z m 12.04,12.195 H 83.655 a 5.63,5.63 0 0 0 0,11.258 h 18.819 a 5.63,5.63 0 0 0 0,-11.258 z M 178.633,20.61 171.083,3.372 a 5.63,5.63 0 0 0 -10.312,4.517 l 7.55,17.238 a 5.63,5.63 0 0 0 10.312,-4.517 z" />
    </g>
  </g>
</svg>
