<svg xmlns="http://www.w3.org/2000/svg" height="223.269" width="293.137" viewBox="0 0 274.81662 209.31615"><g transform="matrix(-1.04907 0 0 1.04907 -113.38 -102.544)" stroke="#000"><path d="M-170.798 177.526l.315 36.011 40.397-37.263v-33.51z" fill="#fff" stroke-width="3.541" stroke-linecap="round" stroke-linejoin="round"/><path d="M-308.584 177.892l53.235-35.7 124.635.628-39.456 35.7" fill="#fff" stroke-width="3.541" stroke-linecap="round" stroke-linejoin="round"/><rect ry="3.509" height="36.325" width="139.039" y="178.153" x="-308.895" fill="#fff" stroke-width="3.541" stroke-linecap="square"/><g transform="matrix(1.88858 0 0 1.88858 -312.436 138.651)" stroke-width=".938" stroke-linecap="square"><circle cy="30.367" cx="11.326" r="3.15" fill="red"/><circle cy="30.367" cx="20.611" r="3.15" fill="#faa"/><circle cy="30.367" cx="62.82" r="3.15" fill="green"/><circle cy="30.367" cx="30.554" r="3.15" fill="red"/></g></g><text y="28.295" x="70.801" style="line-height:0%" font-weight="400" font-size="65.172" letter-spacing="0" word-spacing="0" transform="scale(.99853 1.00147)" font-family="sans-serif" fill="#00f" stroke-width="1.209"><tspan style="-inkscape-font-specification:'sans-serif Bold'" y="28.295" x="70.801" font-weight="700" font-size="37.241">Serial</tspan></text><g transform="translate(-49.71 -39.925) scale(2.8106)" stroke="green" stroke-linecap="round"><circle r="14.559" cy="73.815" cx="100.602" fill="#ececec" stroke-width=".608" stroke-linejoin="round"/><path d="M106.978 82.142h-3.353V63.316H97.54v18.678h-3.652" fill="none" stroke-width="1.521"/></g><circle cx="233.043" cy="81.071" r="40.92" fill="#ececec" stroke="green" stroke-width="1.71" stroke-linecap="round" stroke-linejoin="round"/><path d="M261.766 92.931h-4.696V67.437h-48.103v25.295h-5.116" fill="none" stroke="green" stroke-width="4.275" stroke-linecap="round"/><text y="173.032" x="87.94" style="line-height:0%" font-weight="400" font-size="65.172" letter-spacing="0" word-spacing="0" transform="scale(.99853 1.00147)" font-family="sans-serif" fill="#00f" stroke-width="1.209"><tspan style="-inkscape-font-specification:'sans-serif Bold'" y="173.032" x="87.94" font-weight="700" font-size="37.241">RX</tspan></text></svg>