<svg xmlns="http://www.w3.org/2000/svg" viewBox="-252 400.9 278.24787 161.55007" width="278.248" height="161.55"><defs><marker orient="auto" id="a" overflow="visible"><path d="M5.231 2.42L-1.324.01 5.23-2.401C4.184-.978 4.19.969 5.231 2.42z" fill="#00f" fill-rule="evenodd" stroke="#00f" stroke-width=".375" stroke-linejoin="round"/></marker><marker orient="auto" id="b" overflow="visible"><path d="M-5.231-2.42L1.324-.01-5.23 2.401c1.047-1.423 1.041-3.37 0-4.821z" fill="#00f" fill-rule="evenodd" stroke="#00f" stroke-width=".375" stroke-linejoin="round"/></marker></defs><path d="M-218.782 532.277v-1.407h-28.955a2.482 2.412 0 0 1-2.482-2.412v-67.936a2.482 2.412 0 0 1 2.482-2.412h28.955v-1.407a2.482 2.412 0 0 1 2.482-2.412h161.738a2.482 2.412 0 0 1 2.482 2.412v1.407h28.955a2.482 2.412 0 0 1 2.482 2.412v67.936a2.482 2.412 0 0 1-2.482 2.412H-52.08v1.407a2.482 2.412 0 0 1-2.482 2.412H-216.3a2.482 2.412 0 0 1-2.482-2.412" fill="gray" fill-rule="evenodd" stroke="#191919" stroke-width="3.561"/><ellipse cy="-474.19" cx="-236.569" transform="scale(1 -1)" rx="8.894" ry="8.643" fill="#fff" stroke="#191919" stroke-width="3.561"/><ellipse cy="-514.791" cx="-236.569" transform="scale(1 -1)" rx="8.894" ry="8.643" fill="#fff" stroke="#191919" stroke-width="3.561"/><ellipse cy="-474.19" cx="-34.293" transform="scale(1 -1)" rx="8.894" ry="8.643" fill="#fff" stroke="#191919" stroke-width="3.561"/><ellipse cy="-514.791" cx="-34.293" transform="scale(1 -1)" rx="8.894" ry="8.643" fill="#fff" stroke="#191919" stroke-width="3.561"/><g transform="matrix(4.13652 0 0 -4.0199 -135.431 494.49)" stroke-width="1.184"><circle cx="9.45" r="7.079" fill="none" stroke="#191919" stroke-width=".873"/><title>Fusion009002001_cs001</title></g><path d="M-75.467 475.583c-7.283-7.66-17.99-10.953-28.034-8.622-10.044 2.331-17.874 9.927-20.503 19.887-2.629 9.961.35 20.75 7.8 28.248l81.49 39.287z" fill="#4d4d4d" stroke="#191919" stroke-width="3.561" stroke-linecap="round" stroke-linejoin="round"/><path d="M-75.343 511.357c-7.283 7.66-17.99 10.953-28.033 8.622-10.044-2.331-17.875-9.927-20.503-19.887-2.629-9.961.35-20.75 7.8-28.248l80.462-43.907z" fill="none" stroke="#191919" stroke-width="3.561" stroke-linecap="round" stroke-linejoin="round" stroke-dasharray="3.56129469,7.1225893"/><text style="line-height:125%" x="-27.9" y="561.946" font-weight="400" font-size="62.323" font-family="sans-serif" letter-spacing="0" word-spacing="0" fill="red"><tspan x="-27.9" y="561.946" style="-inkscape-font-specification:'sans-serif Bold'" font-weight="700" font-size="35.613">0</tspan></text><text style="line-height:125%" x="-27.576" y="430.862" font-weight="400" font-size="62.323" font-family="sans-serif" letter-spacing="0" word-spacing="0" fill="red"><tspan x="-27.576" y="430.862" style="-inkscape-font-specification:'sans-serif Bold'" font-weight="700" font-size="35.613">1</tspan></text><text style="line-height:125%;text-align:center" x="-174.36" y="479.202" font-weight="400" font-size="35.279" font-family="sans-serif" letter-spacing="0" word-spacing="0" text-anchor="middle" fill="#fc0"><tspan x="-174.36" y="479.202" style="-inkscape-font-specification:'sans-serif Bold';text-align:center" font-weight="700" font-size="20.16">Tower</tspan></text><text style="line-height:125%;text-align:center" x="-172.438" y="522.407" font-weight="400" font-size="35.279" font-family="sans-serif" letter-spacing="0" word-spacing="0" text-anchor="middle" fill="#fc0"><tspan x="-172.438" y="522.407" style="-inkscape-font-specification:'sans-serif Bold';text-align:center" font-weight="700" font-size="20.16">SG-90</tspan></text><text style="line-height:125%;text-align:center" x="-174.36" y="500.344" font-weight="400" font-size="35.279" font-family="sans-serif" letter-spacing="0" word-spacing="0" text-anchor="middle" fill="#fc0"><tspan x="-174.36" y="500.344" style="-inkscape-font-specification:'sans-serif Bold';text-align:center" font-weight="700" font-size="20.16">Pro</tspan></text><path d="M-.15 535.598a66.685 73.886 0 0 1-24.215-52.98 66.685 73.886 0 0 1 18.798-55.612" transform="scale(-1 1)" fill="none" stroke="#00f" stroke-width="3.561" stroke-linecap="round" stroke-linejoin="round" marker-start="url(#a)" marker-end="url(#b)"/></svg>