<svg xmlns="http://www.w3.org/2000/svg" viewBox="-252 400.9 226.81476 226.82651" width="226.815" height="226.827"><path d="M-218.227 501.253v-1.36h-27.991a2.4 2.332 0 0 1-2.4-2.332v-65.674a2.4 2.332 0 0 1 2.4-2.331h27.991v-1.36a2.4 2.332 0 0 1 2.4-2.332h156.352a2.4 2.332 0 0 1 2.4 2.332v1.36h27.99a2.4 2.332 0 0 1 2.4 2.331v65.674a2.4 2.332 0 0 1-2.4 2.332h-27.99v1.36a2.4 2.332 0 0 1-2.4 2.332h-156.353a2.4 2.332 0 0 1-2.399-2.332" fill="gray" fill-rule="evenodd" stroke="#191919" stroke-width="3"/><ellipse cy="-445.1" cx="-235.421" transform="scale(1 -1)" rx="8.597" ry="8.355" fill="#fff" stroke="#191919" stroke-width="3.443"/><ellipse cy="-484.349" cx="-235.421" transform="scale(1 -1)" rx="8.597" ry="8.355" fill="#fff" stroke="#191919" stroke-width="3.443"/><ellipse cy="-445.1" cx="-39.881" transform="scale(1 -1)" rx="8.597" ry="8.355" fill="#fff" stroke="#191919" stroke-width="3.443"/><ellipse cy="-484.349" cx="-39.881" transform="scale(1 -1)" rx="8.597" ry="8.355" fill="#fff" stroke="#191919" stroke-width="3.443"/><text style="line-height:0%" x="-176.454" y="539.346" font-weight="400" font-family="sans-serif" letter-spacing="0" word-spacing="0" fill="#00f"><tspan x="-176.454" y="539.346" style="line-height:1.25;-inkscape-font-specification:'sans-serif Bold'" font-weight="700" font-size="41.631">ms</tspan></text><path d="M-218.332 429.341v70.264M-57.268 429.341v70.264" opacity=".54" fill="#fff" stroke="#000" stroke-width="3" stroke-linecap="square" stroke-linejoin="round"/><path d="M-118.905 443.988c-7.197 7.252-10.08 17.69-7.545 27.33 2.534 9.64 10.093 16.994 19.791 19.255 9.699 2.26 20.04-.92 27.077-8.33l35.68-79.843z" fill="#4d4d4d" stroke="#191919" stroke-width="3" stroke-linecap="round" stroke-linejoin="round"/><g transform="matrix(2.3863 0 0 2.3863 -456.494 342.989)" stroke="green" stroke-linecap="round"><circle cx="100.602" cy="73.815" r="14.559" fill="#ececec" stroke-width=".608" stroke-linejoin="round"/><path d="M106.978 82.142h-3.353V63.316H97.54v18.678h-3.652" fill="none" stroke-width="1.521"/></g><g transform="matrix(3.09408 0 0 3.09408 -550.829 11.357)" stroke="green" stroke-linecap="round"><circle r="11.548" cy="187.419" cx="108.371" fill="#ececec" stroke-width=".483" stroke-linejoin="round"/><path d="M116.477 190.766h-1.325v-7.195h-13.576v7.139h-1.444" fill="none" stroke-width="1.207"/></g></svg>